<svg id="Layer_1" data-name="Layer 1" xmlns="http://www.w3.org/2000/svg" viewBox="0 0 153.9 209.73"><defs><style>.cls-1{fill:#262626;}</style></defs><path class="cls-1" d="M141.84,36.93a48.26,48.26,0,0,1,48.29,48c.16,26.46-21.81,48.43-48.35,48.35a48.2,48.2,0,0,1,.06-96.39Z" transform="translate(-64.81 -36.89)"/><path class="cls-1" d="M211.3,221.15c-15.94,13.31-34.12,21.7-54.79,24.44-27.73,3.68-53.12-2.5-76.1-18.34A53.28,53.28,0,0,1,68.8,216.94c-5.43-6.88-4.36-15.06-2.42-22.92C71.88,171.68,91,157,114.47,156.77c9.2-.07,18.4,0,27.6,0v.49c11.37,0,22.83-.83,34.11.18,23.82,2.13,42.53,23.5,42.51,47.43a20.3,20.3,0,0,1-7.41,16.28Z" transform="translate(-64.81 -36.89)"/></svg>